<mxfile host="app.diagrams.net" modified="2023-05-12T09:18:20.275Z" agent="Mozilla/5.0 (Windows NT 10.0; Win64; x64) AppleWebKit/537.36 (KHTML, like Gecko) Chrome/113.0.0.0 Safari/537.36 Edg/113.0.1774.35" etag="wqxmQRYEqZ9u7TLxwfDk" version="21.2.9" type="device">
  <diagram name="第 1 页" id="zCL5YYoa86r6GZOC3r9Z">
    <mxGraphModel dx="1134" dy="788" grid="1" gridSize="10" guides="1" tooltips="1" connect="1" arrows="1" fold="1" page="1" pageScale="1" pageWidth="827" pageHeight="1169" math="0" shadow="0">
      <root>
        <mxCell id="0" />
        <mxCell id="1" parent="0" />
        <mxCell id="1YXgp7df5B8HKHKZny2V-9" style="edgeStyle=orthogonalEdgeStyle;rounded=0;orthogonalLoop=1;jettySize=auto;html=1;exitX=1;exitY=0.5;exitDx=0;exitDy=0;entryX=0.5;entryY=0;entryDx=0;entryDy=0;curved=1;" parent="1" source="1YXgp7df5B8HKHKZny2V-1" target="1YXgp7df5B8HKHKZny2V-8" edge="1">
          <mxGeometry relative="1" as="geometry" />
        </mxCell>
        <mxCell id="1YXgp7df5B8HKHKZny2V-1" value="kubelet" style="rounded=1;whiteSpace=wrap;html=1;fillColor=#dae8fc;strokeColor=#6c8ebf;" parent="1" vertex="1">
          <mxGeometry x="430" y="130" width="120" height="60" as="geometry" />
        </mxCell>
        <mxCell id="1YXgp7df5B8HKHKZny2V-2" value="files" style="ellipse;whiteSpace=wrap;html=1;aspect=fixed;fillColor=#ffe6cc;strokeColor=#d79b00;" parent="1" vertex="1">
          <mxGeometry x="120" y="450" width="80" height="80" as="geometry" />
        </mxCell>
        <mxCell id="1YXgp7df5B8HKHKZny2V-4" style="edgeStyle=orthogonalEdgeStyle;rounded=0;orthogonalLoop=1;jettySize=auto;html=1;exitX=0.5;exitY=1;exitDx=0;exitDy=0;" parent="1" source="1YXgp7df5B8HKHKZny2V-3" target="1YXgp7df5B8HKHKZny2V-2" edge="1">
          <mxGeometry relative="1" as="geometry" />
        </mxCell>
        <mxCell id="1YXgp7df5B8HKHKZny2V-5" style="edgeStyle=orthogonalEdgeStyle;rounded=0;orthogonalLoop=1;jettySize=auto;html=1;exitX=1;exitY=0.5;exitDx=0;exitDy=0;entryX=0.5;entryY=1;entryDx=0;entryDy=0;curved=1;" parent="1" source="1YXgp7df5B8HKHKZny2V-3" target="1YXgp7df5B8HKHKZny2V-1" edge="1">
          <mxGeometry relative="1" as="geometry" />
        </mxCell>
        <mxCell id="1YXgp7df5B8HKHKZny2V-3" value="list-watcher" style="rounded=1;whiteSpace=wrap;html=1;fillColor=#dae8fc;strokeColor=#6c8ebf;" parent="1" vertex="1">
          <mxGeometry x="100" y="270" width="120" height="70" as="geometry" />
        </mxCell>
        <mxCell id="1YXgp7df5B8HKHKZny2V-6" value="use update channel" style="text;html=1;align=center;verticalAlign=middle;resizable=0;points=[];autosize=1;strokeColor=none;fillColor=none;" parent="1" vertex="1">
          <mxGeometry x="285" y="240" width="130" height="30" as="geometry" />
        </mxCell>
        <mxCell id="1YXgp7df5B8HKHKZny2V-8" value="Pod" style="ellipse;whiteSpace=wrap;html=1;aspect=fixed;fillColor=#ffe6cc;strokeColor=#d79b00;" parent="1" vertex="1">
          <mxGeometry x="610" y="400" width="80" height="80" as="geometry" />
        </mxCell>
        <mxCell id="1YXgp7df5B8HKHKZny2V-10" value="use the message to sync Pod status" style="text;html=1;align=center;verticalAlign=middle;resizable=0;points=[];autosize=1;strokeColor=none;fillColor=none;" parent="1" vertex="1">
          <mxGeometry x="430" y="330" width="220" height="30" as="geometry" />
        </mxCell>
        <mxCell id="1YXgp7df5B8HKHKZny2V-11" value="" style="shape=flexArrow;endArrow=classic;html=1;rounded=0;" parent="1" source="1YXgp7df5B8HKHKZny2V-3" target="1YXgp7df5B8HKHKZny2V-12" edge="1">
          <mxGeometry width="50" height="50" relative="1" as="geometry">
            <mxPoint x="220" y="340" as="sourcePoint" />
            <mxPoint x="420" y="560" as="targetPoint" />
          </mxGeometry>
        </mxCell>
        <mxCell id="1YXgp7df5B8HKHKZny2V-12" value="具体实现思路：&lt;br&gt;1，list , 读取特定目录下的所有文件，并且发送给update&lt;br&gt;2，watch， 使用第三方库实现对于file的监控&lt;br&gt;3，为了实现这一点，我们需要做到在多个对象之间共享相同的channel" style="rounded=1;whiteSpace=wrap;html=1;" parent="1" vertex="1">
          <mxGeometry x="540" y="530" width="180" height="150" as="geometry" />
        </mxCell>
      </root>
    </mxGraphModel>
  </diagram>
</mxfile>
